<?xml version="1.0" standalone="no"?>
<!DOCTYPE svg PUBLIC "-//W3C//DTD SVG 20010904//EN"
 "http://www.w3.org/TR/2001/REC-SVG-20010904/DTD/svg10.dtd">
<svg version="1.0" xmlns="http://www.w3.org/2000/svg"
 width="500.000000pt" height="500.000000pt" viewBox="0 0 500.000000 500.000000"
 preserveAspectRatio="xMidYMid meet">
<metadata>
Created by potrace 1.14, written by Peter Selinger 2001-2017
</metadata>
<g transform="translate(0.000000,500.000000) scale(0.100000,-0.100000)"
fill="#000000" stroke="none">
<path d="M2732 4228 c-49 -8 -128 -17 -184 -21 -21 -1 -38 -5 -38 -9 0 -5 -8
-8 -19 -8 -10 0 -38 -7 -62 -16 -24 -9 -52 -16 -61 -16 -10 0 -18 -3 -18 -9 0
-5 -3 -8 -7 -7 -5 1 -18 -3 -30 -10 -13 -7 -23 -11 -23 -8 0 3 -24 -8 -52 -23
-81 -42 -101 -54 -125 -75 -13 -11 -23 -16 -23 -11 0 4 -8 -2 -19 -13 -10 -12
-22 -22 -26 -22 -4 0 -20 -11 -37 -25 -16 -14 -26 -25 -22 -25 3 0 -5 -9 -18
-20 -39 -30 -96 -89 -120 -124 -12 -17 -25 -33 -28 -36 -20 -18 -84 -127 -78
-132 2 -2 -7 -18 -20 -35 -13 -18 -20 -33 -17 -33 9 0 -34 -60 -62 -87 -13
-12 -23 -25 -23 -29 0 -3 -14 -23 -30 -43 -36 -42 -39 -47 -63 -83 -10 -16
-14 -28 -11 -28 4 0 -3 -9 -15 -19 -22 -19 -51 -19 -51 1 0 6 -7 7 -16 4 -8
-3 -22 0 -29 8 -8 7 -25 12 -39 11 -14 -2 -26 0 -26 4 0 5 -30 7 -67 5 -78 -4
-98 -7 -133 -21 -14 -6 -28 -9 -33 -6 -4 2 -7 -1 -7 -6 0 -6 -7 -11 -15 -11
-8 0 -15 -6 -15 -13 0 -22 11 -27 26 -13 17 18 137 13 186 -7 20 -8 39 -13 42
-9 3 3 6 0 6 -6 0 -7 7 -12 15 -12 9 0 25 -9 37 -20 12 -10 25 -17 30 -14 4 3
9 -1 10 -8 4 -36 3 -44 -7 -50 -5 -4 -10 -11 -11 -15 0 -4 -6 -21 -13 -37 -6
-16 -13 -37 -14 -47 -2 -10 -6 -22 -10 -25 -4 -4 -7 -16 -7 -26 0 -11 -4 -17
-9 -14 -5 3 -7 -8 -6 -24 1 -17 -1 -30 -5 -30 -7 0 -14 -30 -25 -108 -2 -18
-7 -38 -11 -44 -4 -7 -9 -68 -10 -137 -2 -69 -4 -128 -5 -131 -1 -3 0 -9 1
-15 1 -5 4 -47 5 -92 2 -46 7 -88 11 -95 5 -7 7 -28 5 -46 -2 -23 1 -32 8 -28
7 5 10 -4 7 -23 -2 -17 1 -32 6 -33 5 -2 11 -17 13 -33 2 -17 9 -43 16 -60 7
-16 13 -35 14 -41 2 -6 9 -27 18 -45 24 -57 34 -84 35 -93 0 -5 4 -12 9 -15 5
-3 18 -23 29 -44 36 -73 39 -77 47 -77 4 0 5 -4 2 -10 -3 -5 -1 -10 4 -10 6 0
11 -5 11 -11 0 -6 6 -16 13 -23 6 -8 19 -24 27 -36 8 -12 21 -29 28 -36 7 -8
11 -14 7 -14 -4 0 10 -15 29 -34 20 -18 36 -38 36 -44 0 -6 9 -14 20 -17 11
-3 20 -13 20 -21 0 -8 4 -14 9 -14 5 0 34 -24 64 -52 31 -29 72 -64 92 -78 20
-14 44 -33 53 -42 8 -9 19 -15 24 -12 4 3 8 0 8 -5 0 -6 5 -11 11 -11 6 0 17
-7 25 -15 9 -8 24 -15 35 -15 10 0 19 -4 19 -9 0 -9 100 -56 113 -53 4 1 7 -2
7 -8 0 -5 9 -10 20 -10 11 0 20 -5 20 -10 0 -6 3 -9 8 -8 12 2 66 -14 79 -24
7 -6 19 -8 26 -5 7 3 21 -1 31 -9 11 -7 23 -11 28 -8 5 3 14 2 21 -3 7 -5 23
-9 37 -8 14 0 28 -3 31 -8 3 -5 31 -9 63 -10 31 -1 56 -5 56 -9 0 -14 382 2
419 18 9 3 27 8 41 10 31 4 50 9 72 18 9 4 22 8 30 10 31 4 148 50 148 58 0 4
6 5 14 2 8 -3 17 -1 21 5 3 6 15 11 26 11 13 0 18 4 13 12 -5 8 -2 9 9 5 10
-3 17 -3 17 2 0 4 18 16 40 26 22 10 40 21 40 25 0 4 8 10 18 14 57 19 301
225 294 248 -3 11 24 10 46 -1 31 -17 137 -66 142 -66 6 0 66 -23 95 -36 34
-15 168 -51 201 -54 17 -1 41 -6 55 -10 31 -10 168 -8 183 3 6 4 25 7 43 6 18
-1 37 4 44 12 9 11 15 11 25 3 11 -9 14 -8 14 4 0 9 7 14 18 13 9 -2 30 7 45
20 16 13 33 24 38 24 6 0 16 6 23 13 7 6 31 28 52 48 46 41 89 98 80 106 -3 3
-12 0 -21 -7 -8 -7 -15 -9 -15 -5 0 4 -10 1 -22 -7 -22 -14 -77 -31 -143 -44
-39 -8 -205 -11 -205 -4 0 3 -12 7 -27 8 -16 2 -44 5 -63 7 -71 7 -122 15
-134 22 -6 4 -20 8 -31 8 -11 0 -26 4 -32 8 -7 5 -13 6 -13 4 0 -3 -17 -1 -37
4 -21 5 -45 11 -53 13 -8 2 -35 9 -60 16 -25 7 -55 14 -67 15 -13 2 -30 11
-39 20 -15 15 -15 18 4 38 12 12 20 25 19 29 -1 4 6 16 15 28 10 11 14 20 10
20 -4 0 -2 4 3 8 16 11 46 73 40 82 -3 4 2 10 10 14 8 3 15 14 15 25 0 11 5
23 10 26 6 4 8 11 5 16 -4 5 -1 9 4 9 6 0 11 9 11 20 0 11 4 20 9 20 5 0 8 11
5 25 -2 14 0 25 5 25 9 0 20 42 23 88 1 12 6 22 10 22 5 0 8 6 7 13 -4 29 2
68 9 63 4 -3 7 16 7 42 -1 26 1 51 4 56 9 18 7 55 -4 48 -5 -3 -4 2 3 11 8 9
11 21 7 27 -3 5 -3 10 2 10 4 0 7 30 6 67 -1 38 -3 68 -3 68 -4 0 -11 54 -13
92 -3 46 -16 71 -18 32 -2 -54 4 -94 14 -101 8 -5 8 -8 1 -8 -12 0 -12 -49 1
-69 5 -9 4 -12 -2 -8 -7 4 -10 -11 -9 -41 1 -26 -2 -76 -7 -112 -5 -36 -9 -74
-8 -84 0 -11 -4 -27 -9 -36 -5 -10 -11 -32 -12 -49 -1 -17 -6 -31 -11 -31 -5
0 -7 -6 -4 -14 3 -7 -1 -25 -8 -40 -8 -14 -11 -26 -8 -26 3 0 0 -6 -6 -14 -6
-8 -11 -18 -9 -22 1 -5 -3 -19 -10 -30 -6 -12 -8 -24 -5 -28 3 -3 1 -6 -5 -6
-7 0 -12 -7 -12 -15 0 -8 -4 -15 -9 -15 -6 0 -8 -9 -6 -20 2 -11 1 -20 -3 -20
-4 0 -21 -26 -37 -57 -17 -32 -34 -63 -40 -70 -5 -7 -15 -19 -22 -27 -6 -7 -9
-17 -6 -20 4 -3 1 -6 -6 -6 -8 0 -11 -6 -7 -16 3 -8 2 -12 -4 -9 -6 3 -13 -1
-16 -9 -5 -13 -10 -13 -27 -4 -12 7 -30 11 -39 9 -10 -1 -18 2 -18 6 0 5 -12
10 -27 11 -15 1 -29 6 -32 11 -3 4 -14 7 -23 5 -10 -1 -18 3 -18 9 0 5 -3 8
-6 4 -4 -3 -19 0 -35 8 -16 9 -32 14 -36 13 -9 -3 -53 20 -68 36 -6 6 -15 20
-20 31 -4 11 -9 270 -9 575 -2 474 0 559 13 580 22 37 50 62 61 55 6 -3 10 -2
10 4 0 6 7 8 15 5 8 -4 15 -1 15 5 0 6 7 8 17 4 9 -4 14 -2 10 3 -7 12 -541
13 -553 2 -4 -5 5 -8 19 -8 15 0 27 -5 27 -12 0 -6 3 -8 7 -5 11 12 79 -40 73
-55 -1 -2 3 -15 9 -30 8 -21 7 -28 -2 -28 -7 0 -8 -3 -2 -8 14 -10 15 -56 1
-64 -7 -5 -8 -8 0 -8 14 0 13 -82 -1 -92 -6 -5 -6 -8 2 -8 11 0 10 -30 -2 -49
-3 -5 -1 -13 5 -16 8 -5 7 -12 -2 -23 -10 -12 -10 -14 0 -8 14 8 12 -19 -2
-43 -6 -10 -5 -12 2 -7 10 6 11 -19 2 -44 -2 -3 -1 -9 0 -15 8 -30 7 -92 -2
-102 -5 -7 -6 -18 -2 -25 11 -17 12 -49 2 -70 -5 -10 -4 -19 2 -23 8 -5 7 -12
-2 -23 -9 -11 -9 -13 -1 -9 9 6 11 -2 9 -27 -2 -19 -6 -39 -10 -44 -3 -6 -2
-14 4 -17 8 -5 7 -12 -2 -23 -9 -11 -9 -13 -1 -9 9 6 11 -2 9 -27 -2 -19 -6
-39 -10 -44 -3 -6 -2 -14 4 -17 8 -5 7 -12 -2 -23 -7 -9 -8 -13 -2 -9 6 4 10
-10 10 -38 0 -28 -4 -42 -10 -38 -6 3 -6 0 1 -7 8 -9 9 -20 2 -37 -5 -14 -7
-29 -3 -34 3 -5 -10 -25 -29 -44 -24 -24 -41 -33 -60 -31 -15 2 -27 -1 -27 -6
0 -5 -5 -6 -11 -2 -7 4 -10 1 -7 -7 3 -9 24 -14 69 -15 35 -1 64 -2 64 -4 0
-1 16 -4 35 -7 19 -2 37 -8 40 -12 3 -4 14 -6 25 -6 11 0 28 -6 39 -15 10 -8
20 -14 22 -12 9 6 84 -22 84 -31 0 -5 7 -7 15 -3 8 3 15 2 15 -2 0 -4 28 -21
63 -37 34 -16 65 -33 68 -38 3 -5 9 -8 13 -8 3 1 29 -10 56 -24 44 -22 49 -28
39 -43 -7 -10 -24 -27 -40 -37 -15 -11 -26 -22 -25 -25 3 -6 -32 -41 -38 -37
-2 1 -18 -10 -35 -26 -17 -15 -31 -25 -31 -22 0 3 -10 -3 -22 -14 -11 -11 -26
-18 -31 -14 -6 3 -7 1 -3 -5 5 -8 -31 -29 -41 -23 -2 0 -12 -7 -22 -16 -37
-34 -46 -40 -59 -35 -6 2 -12 -1 -12 -7 0 -6 -7 -11 -15 -11 -8 0 -15 -4 -15
-9 0 -5 -8 -8 -17 -7 -10 2 -24 -3 -31 -11 -8 -7 -18 -11 -23 -8 -5 4 -9 1 -9
-5 0 -6 -6 -10 -12 -9 -7 1 -21 -1 -30 -4 -28 -11 -53 -18 -56 -17 -1 0 -15
-6 -30 -13 -15 -7 -34 -13 -42 -12 -8 1 -21 -4 -29 -9 -12 -9 -13 -8 -6 4 7
12 6 13 -6 3 -18 -14 -69 -24 -136 -26 -29 -1 -53 -6 -53 -12 0 -5 -4 -4 -9 4
-6 9 -10 10 -16 2 -5 -9 -11 -9 -23 1 -9 7 -13 8 -10 2 9 -14 -73 -15 -91 -1
-12 9 -13 9 -7 0 8 -14 -6 -18 -18 -6 -4 4 -33 8 -64 9 -57 1 -124 10 -152 21
-8 4 -26 7 -39 8 -14 0 -26 6 -28 11 -2 6 -15 9 -28 6 -16 -3 -25 0 -25 8 0 7
-8 10 -20 7 -11 -3 -20 -2 -20 3 0 7 -42 23 -65 24 -5 1 -16 7 -23 14 -8 7
-18 10 -23 7 -5 -4 -9 -1 -9 4 0 6 -9 11 -20 11 -11 0 -20 4 -20 9 0 5 -8 11
-17 15 -10 3 -36 17 -58 30 -22 14 -47 28 -55 32 -8 4 -17 10 -20 13 -3 4 -23
20 -45 36 -62 46 -77 58 -107 87 -16 15 -40 36 -55 47 -14 12 -23 21 -19 21 4
0 -3 10 -16 23 -13 12 -44 49 -68 82 -25 33 -48 62 -52 63 -5 2 -8 12 -8 23 0
11 -7 19 -17 19 -9 0 -13 3 -9 7 4 4 102 8 219 8 168 1 212 4 215 14 3 10 -3
12 -22 9 -14 -3 -26 -1 -26 4 0 6 -7 8 -15 5 -23 -9 -70 48 -71 87 -1 18 -4
38 -7 43 -3 5 -2 15 3 23 5 8 5 22 -1 32 -7 12 -6 18 1 18 6 0 8 5 4 12 -12
19 -12 48 -1 48 5 0 5 6 -2 13 -8 10 -7 17 1 25 9 9 9 12 0 12 -9 0 -10 5 -3
18 5 10 6 24 1 32 -5 8 -5 21 0 30 5 9 4 23 -1 33 -7 12 -6 17 2 17 8 0 8 4 1
13 -7 8 -7 18 -2 27 5 8 5 21 -1 32 -7 13 -6 18 3 18 9 0 9 3 0 12 -7 7 -8 17
-2 28 5 9 5 22 0 30 -5 8 -4 22 1 32 7 12 6 18 -1 18 -7 0 -8 6 -1 18 6 11 6
24 0 35 -7 11 -6 17 1 17 8 0 8 6 0 20 -6 11 -7 20 -2 20 10 0 9 30 -2 48 -4
7 -5 16 -1 20 4 4 43 -31 87 -78 65 -69 215 -229 346 -366 13 -13 21 -24 19
-24 -2 0 48 -53 110 -117 335 -348 438 -451 445 -447 4 2 10 -2 15 -9 10 -17
83 -61 83 -51 0 4 6 1 13 -8 9 -13 72 -40 97 -43 3 0 11 -4 17 -8 7 -5 35 -8
63 -9 33 0 48 -4 43 -11 -3 -6 -1 -7 5 -3 7 4 31 9 54 12 24 2 50 7 58 11 8 3
26 8 40 10 13 2 30 8 36 14 6 5 14 6 17 2 4 -3 7 3 7 14 0 16 -5 20 -20 16
-11 -3 -18 -8 -16 -12 6 -8 -111 -7 -120 2 -4 4 -20 7 -36 7 -15 0 -28 5 -28
11 0 6 -8 8 -19 4 -12 -3 -21 0 -25 10 -3 8 -9 14 -13 13 -18 -3 -78 31 -123
72 -15 14 -42 36 -58 49 -17 13 -28 29 -25 35 3 6 3 8 -2 4 -6 -6 -39 17 -34
24 1 2 -26 32 -60 67 -33 36 -61 69 -61 75 -5 159 1 1050 7 1059 4 6 8 15 8
19 0 13 40 43 55 43 8 -1 21 4 29 9 8 6 16 10 18 9 8 -7 35 -2 29 5 -9 8 -536
12 -551 4 -9 -5 5 -10 72 -25 7 -2 26 -16 42 -31 l29 -28 2 -266 c0 -146 3
-269 6 -274 3 -4 2 -8 -3 -8 -10 0 -9 -52 1 -68 4 -7 4 -12 -1 -12 -10 0 -10
-71 1 -88 4 -7 3 -12 -1 -12 -5 0 -9 -9 -9 -20 0 -11 4 -20 8 -20 4 0 8 -4 8
-8 0 -20 -34 -6 -50 20 -9 15 -20 25 -23 22 -4 -4 -10 2 -14 12 -4 10 -42 55
-85 98 -43 44 -78 84 -78 88 0 4 -7 8 -15 8 -8 0 -15 3 -15 8 0 4 -20 28 -45
55 -25 26 -43 47 -41 47 2 0 -47 52 -110 115 -63 63 -114 117 -114 120 0 3
-10 16 -22 29 -57 58 -169 172 -180 183 -25 24 -43 48 -41 55 2 4 -6 10 -17
13 -11 4 -20 11 -20 16 0 6 -4 7 -10 4 -5 -3 -10 -1 -10 5 0 6 -14 23 -30 37
l-30 25 22 37 c25 40 38 57 87 113 18 21 31 38 28 38 -4 0 4 10 16 23 12 13
25 22 30 20 4 -3 10 3 13 11 3 9 12 16 19 16 8 0 21 7 29 16 9 8 16 13 16 10
0 -3 16 6 36 19 20 14 40 22 45 19 5 -3 9 0 9 5 0 6 6 11 14 11 8 0 16 4 18 8
4 11 217 115 234 115 8 0 14 7 14 14 0 8 4 12 10 8 10 -6 50 13 62 30 4 6 8 7
8 3 0 -4 17 0 38 9 20 8 48 20 62 26 14 6 31 9 39 8 7 -1 10 2 7 8 -6 9 58 28
77 23 4 -1 7 2 7 8 0 5 9 10 19 10 11 0 23 5 26 11 4 6 13 8 21 5 8 -3 14 -1
14 5 0 6 6 9 13 6 6 -2 23 1 37 8 14 6 32 11 40 10 8 -1 21 3 28 9 7 5 23 10
35 11 12 1 32 5 45 9 14 5 22 3 22 -4 0 -6 -4 -9 -9 -5 -5 3 -16 -1 -24 -9 -8
-8 -17 -13 -20 -10 -3 3 -32 -4 -64 -16 -32 -12 -62 -23 -68 -24 -5 -1 -17 -6
-25 -11 -8 -5 -19 -10 -25 -11 -5 -1 -23 -8 -40 -15 -16 -7 -32 -13 -35 -13
-3 -1 -41 -19 -85 -41 -44 -22 -83 -39 -87 -37 -5 1 -8 -2 -8 -8 0 -5 -7 -10
-15 -10 -8 0 -15 -5 -15 -12 0 -6 -3 -8 -7 -5 -3 4 -11 3 -17 -2 -9 -7 -47
-28 -151 -85 -11 -6 -22 -13 -25 -16 -14 -14 -60 -39 -60 -33 0 5 -4 3 -8 -3
-4 -5 -37 -30 -74 -54 -38 -24 -68 -48 -68 -53 0 -4 -4 -5 -10 -2 -5 3 -10 1
-10 -4 0 -6 -5 -11 -11 -11 -7 0 -17 -7 -23 -16 -6 -8 -18 -16 -27 -17 -8 -2
-24 -11 -35 -22 -11 -11 -34 -31 -51 -43 -18 -13 -34 -30 -37 -38 -7 -18 2
-40 17 -42 7 -1 37 -6 67 -12 30 -6 80 -13 110 -15 30 -2 78 -8 105 -12 28 -4
97 -5 155 -1 58 4 131 8 162 10 31 1 54 6 52 10 -3 4 10 8 29 8 18 0 37 3 41
8 4 4 15 7 24 8 36 2 82 17 82 26 0 5 4 7 8 4 5 -3 19 1 33 8 13 7 30 11 37 8
6 -2 12 1 12 7 0 6 4 11 10 11 18 0 90 34 90 43 0 4 5 5 10 2 6 -3 13 0 16 9
3 8 12 12 20 9 8 -3 14 0 14 6 0 6 7 11 15 11 8 0 15 5 15 11 0 5 4 8 9 5 5
-4 11 -3 13 1 1 5 23 21 48 37 25 16 49 35 53 43 4 7 14 13 22 13 8 0 18 6 22
13 4 7 17 20 29 28 27 18 102 81 163 136 25 24 49 43 53 43 3 0 19 13 35 28
33 33 193 147 193 137 0 -3 14 3 31 15 16 12 32 20 35 17 3 -3 17 1 31 8 14 7
34 12 44 10 11 -2 19 0 19 6 0 5 15 9 34 9 48 0 52 14 14 44 -18 15 -38 31
-45 36 -6 5 -40 28 -75 50 -35 22 -68 44 -74 49 -7 5 -14 7 -18 4 -3 -3 -8 2
-12 11 -3 9 -11 13 -16 10 -6 -4 -13 -3 -17 2 -11 16 -52 35 -61 29 -6 -4 -10
-2 -10 3 0 5 -10 13 -22 17 -13 4 -25 8 -28 10 -3 1 -14 5 -25 9 -11 4 -28 12
-38 17 -10 5 -22 7 -27 4 -5 -3 -11 -1 -15 5 -3 5 -17 10 -31 10 -13 0 -24 4
-24 8 0 4 -14 9 -31 10 -18 1 -37 6 -43 9 -12 8 -34 11 -116 17 -30 2 -62 7
-71 11 -9 3 -20 5 -25 4 -5 -1 -11 0 -14 1 -21 8 -40 6 -40 -3 0 -8 -3 -8 -8
-2 -9 12 -34 13 -90 3z m-1117 -1260 l40 -41 0 -526 c1 -525 0 -544 -34 -580
-11 -13 -16 -12 -31 9 -10 14 -18 27 -17 30 3 12 -15 50 -23 50 -5 0 -7 7 -4
15 4 8 2 15 -3 15 -5 0 -9 10 -10 22 -1 11 -8 25 -15 29 -7 5 -10 9 -6 9 3 0
-2 23 -13 50 -10 28 -17 50 -14 50 3 0 1 9 -5 20 -12 22 -21 69 -23 122 -1 21
-5 38 -8 38 -8 0 -9 9 -12 170 -1 87 2 154 9 167 5 11 10 39 9 62 -1 23 3 41
7 41 4 0 8 14 8 30 0 17 4 30 9 30 5 0 8 8 6 18 -1 9 3 31 10 49 7 17 11 34 7
37 -3 3 0 6 7 6 6 0 11 6 10 13 -1 6 4 26 11 42 14 32 17 40 19 55 2 21 28 9
66 -32z"/>
<path d="M4098 2869 c-3 -8 1 -20 8 -27 15 -14 17 -7 5 22 -6 15 -9 16 -13 5z"/>
<path d="M4110 2806 c0 -8 4 -17 8 -20 4 -2 8 4 8 15 0 10 -4 19 -8 19 -4 0
-8 -6 -8 -14z"/>
<path d="M4129 2758 c0 -7 -2 -21 -4 -30 -2 -10 0 -20 5 -23 4 -3 10 9 12 26
3 16 1 32 -4 35 -4 3 -8 -1 -9 -8z"/>
</g>
</svg>
